<?xml version="1.0" encoding="UTF-8"?>
<svg width="1200pt" height="1200pt" version="1.1" viewBox="0 0 1200 1200" xmlns="http://www.w3.org/2000/svg">
 <path d="m538.03 635.39c5.4844 4.0312 6.7031 11.766 2.6719 17.25s-11.766 6.7031-17.25 2.6719l-61.734-45.328c-5.4844-4.0312-6.7031-11.766-2.6719-17.25 0.79688-1.125 1.7812-2.0625 2.8594-2.8125l61.5-45.188c5.4844-4.0312 13.219-2.8594 17.25 2.6719 4.0312 5.4844 2.8594 13.219-2.6719 17.25l-48.188 35.391 48.188 35.391zm138.52 19.875c-5.4844 4.0312-13.219 2.8594-17.25-2.6719-4.0312-5.4844-2.8594-13.219 2.6719-17.25l48.188-35.391-48.188-35.391c-5.4844-4.0312-6.7031-11.766-2.6719-17.25s11.766-6.7031 17.25-2.6719l61.5 45.188c1.0781 0.75 2.0625 1.6875 2.8594 2.8125 4.0312 5.4844 2.8594 13.219-2.6719 17.25l-61.734 45.328zm-97.453 24.891c-2.6719 6.2812-9.8906 9.1875-16.172 6.5156s-9.1875-9.8906-6.5156-16.172l64.453-150.71c2.6719-6.2812 9.8906-9.1875 16.172-6.5156 6.2812 2.6719 9.1875 9.8906 6.5156 16.172zm-196.87-314.21v127.22c11.812-24.094 27.516-45.891 46.266-64.641 43.875-43.875 104.48-71.016 171.47-71.016h360.37c6.8438 0 12.375 5.5312 12.375 12.375v25.453l101.81-76.312-101.81-76.312v25.453c0 6.8438-5.5312 12.375-12.375 12.375h-362.44c-41.719 0.1875-81.516 8.3438-117.94 23.016-36.656 14.766-69.891 36.141-98.344 62.625zm-16.219 451.82h127.26c-24.094-11.812-45.984-27.562-64.734-46.312-43.875-43.875-71.016-104.44-71.016-171.37v-360.46c0-6.8438 5.5312-12.375 12.375-12.375h25.453l-76.312-101.81-76.312 101.81h25.453c6.8438 0 12.375 5.5312 12.375 12.375v352.74c0 0.46875-0.046875 0.89062-0.09375 1.3125-0.046875 0.9375-0.046875 1.8281-0.046875 2.625 0 1.5 0.046875-0.32812 0.046875 3.75 0 42.281 8.1562 82.547 23.016 119.39 14.766 36.656 36.141 69.938 62.625 98.391zm451.74 16.219c-28.453 26.484-61.734 47.859-98.344 62.625-36.844 14.812-77.109 23.016-119.39 23.016-4.125 0-2.25 0.046875-3.75 0.046875-0.79687 0-1.6875-0.046875-2.625-0.046875-0.42187-0.046875-0.89062-0.09375-1.3594-0.09375h-352.69c-6.8438 0-12.375 5.5312-12.375 12.375v25.453l-101.81-76.312 101.81-76.312v25.453h0.046875c0 6.7969 5.5312 12.328 12.328 12.328h355.78c1.5469 0.046875 3.0938 0.046875 4.6406 0.046875 66.938 0 127.6-27.141 171.47-71.016 18.75-18.75 34.453-40.594 46.266-64.641v127.22zm126.47-227.06c0.09375-3.4219 0.14062-5.7188 0.14062-6.9844 0-45.375-8.8125-88.781-24.844-128.58-13.078-32.484-30.984-62.484-52.781-89.203h81.281v37.734c0 6.8438 5.5312 12.375 12.375 12.375 3.1875 0 6.0938-1.2188 8.25-3.1875l133.82-100.36c5.4375-4.0781 6.5625-11.812 2.4375-17.25-0.79688-1.0312-1.6875-1.9219-2.6719-2.625l-134.48-100.83c-5.4375-4.0781-13.172-2.9531-17.25 2.4375-1.6875 2.2031-2.4375 4.8281-2.4375 7.4062h-0.046875v37.734h-344.06c-4.0781-0.046875-2.4375-0.09375-3.9375-0.09375-45.375 0-88.781 8.8125-128.58 24.844-32.484 13.078-62.484 30.984-89.203 52.781v-81.281h37.734c6.8438 0 12.375-5.5312 12.375-12.375 0-3.1875-1.2188-6.0938-3.1875-8.25l-100.36-133.82c-4.0781-5.4375-11.812-6.5625-17.25-2.4375-1.0312 0.79687-1.9219 1.6875-2.625 2.6719l-100.83 134.48c-4.0781 5.4375-2.9531 13.172 2.4375 17.25 2.2031 1.6875 4.8281 2.4375 7.4062 2.4375v0.046874h37.734v340.36c0 0.28125 0 0.5625 0.046875 0.79688 0 0.89062-0.046875 1.875-0.046875 2.9531-0.046875 4.0781-0.09375 2.3906-0.09375 3.9375 0 45.375 8.8125 88.781 24.844 128.58 13.078 32.484 30.984 62.531 52.828 89.25h-81.328v-37.781c0-6.8438-5.5312-12.375-12.375-12.375-3.1875 0-6.0938 1.2188-8.25 3.1875l-133.82 100.36c-5.4375 4.0781-6.5625 11.812-2.4375 17.25 0.79687 1.0312 1.6875 1.9219 2.6719 2.625l134.48 100.83c5.4375 4.0781 13.172 2.9531 17.25-2.4375 1.6875-2.2031 2.4375-4.8281 2.4375-7.4062h0.046874v-37.734h340.31c0.28125 0 0.51562 0 0.79688-0.046875 0.89062 0 1.9219 0.046875 2.9531 0.046875 4.0781 0.046875 2.4375 0.09375 3.9375 0.09375 45.375 0 88.781-8.8125 128.58-24.844 32.484-13.078 62.484-30.984 89.203-52.781v81.281h-37.734c-6.8438 0-12.375 5.5312-12.375 12.375 0 3.1875 1.2188 6.0938 3.1875 8.25l100.36 133.82c4.0781 5.4375 11.812 6.5625 17.25 2.4375 1.0312-0.79688 1.9219-1.6875 2.625-2.6719l100.83-134.48c4.0781-5.4375 2.9531-13.172-2.4375-17.25-2.2031-1.6875-4.8281-2.4375-7.4062-2.4375v-0.046875h-37.734v-340.26c0-0.28125 0-0.51562-0.046875-0.79688zm-101.77-6.7969v360.24c0 6.8438-5.5312 12.375-12.375 12.375h-25.453l76.312 101.81 76.312-101.81h-25.453c-6.8438 0-12.375-5.5312-12.375-12.375v-352.64c0-0.42188 0.046876-0.84375 0.046876-1.2656 0-1.3594 0.046874-3.5625 0.046874-6.4688 0-42.281-8.1562-82.547-23.016-119.39-14.766-36.656-36.141-69.891-62.625-98.344h-127.22c24.094 11.812 45.891 27.516 64.641 46.266 43.875 43.875 71.016 104.48 71.016 171.47v0.1875zm-24.75-0.1875v-0.046875c0-60.094-24.375-114.52-63.797-153.89-39.422-39.422-93.844-63.797-153.98-63.797-60.141 0-114.56 24.375-153.98 63.797-39.422 39.422-63.797 93.844-63.797 153.98 0 60.141 24.375 114.56 63.797 153.98 39.422 39.422 93.844 63.797 153.98 63.797 60.141 0 114.56-24.375 153.98-63.797 39.375-39.375 63.703-93.75 63.797-153.79z" fill-rule="evenodd"/>
</svg>
