<?xml version="1.0" encoding="UTF-8"?>
<svg width="1200pt" height="1200pt" version="1.1" viewBox="0 0 1200 1200" xmlns="http://www.w3.org/2000/svg">
 <path d="m552 468.74c73.266 0 136.36-51.75 150.66-123.66 14.297-71.859-24.188-143.81-91.875-171.89-67.734-28.031-145.78-4.3125-186.52 56.578-40.734 60.938-32.719 142.18 19.125 193.97 28.781 28.875 67.875 45.047 108.61 45zm306.84 155.86c78.375 0 145.82 55.406 161.11 132.28 15.281 76.875-25.875 153.84-98.297 183.84s-155.95 4.6406-199.5-60.516c-43.547-65.203-34.969-152.06 20.438-207.47 30.797-30.891 72.609-48.188 116.25-48.141zm97.359 66.938h-0.046875c-46.453-46.453-119.25-53.625-173.86-17.109-54.609 36.469-75.844 106.5-50.719 167.16 25.172 60.703 89.672 95.156 154.08 82.359 64.453-12.797 110.81-69.375 110.81-135.05 0.09375-36.516-14.438-71.531-40.266-97.312zm-56.625-132.52-8.9531-53.062h-63.609l-8.9531 53.156v-0.046875c-0.9375 5.4375-5.0625 9.75-10.453 10.875-11.906 2.7656-23.531 6.4688-34.781 11.156-11.391 4.7344-22.359 10.406-32.812 16.969-4.7812 2.9531-10.922 2.625-15.281-0.89062l-43.406-30.891-45.094 45.094 31.266 43.969v-0.046875c3.1406 4.4062 3.2812 10.172 0.46875 14.766-6.5156 10.453-12.188 21.422-16.922 32.812-4.7344 11.344-8.4844 23.109-11.25 35.062-1.2656 5.2969-5.5781 9.2812-10.922 10.125l-53.062 8.9531v63.656l53.156 8.9531v-0.046875c5.4375 0.9375 9.75 5.0625 10.828 10.453 5.625 23.953 15.094 46.828 28.125 67.641 3 4.7812 2.625 10.922-0.84375 15.281l-30.891 43.406 45.047 45 43.969-31.266-0.046875 0.046875c4.4062-3.0938 10.172-3.2812 14.766-0.46875 20.906 13.125 43.922 22.688 67.969 28.312 5.2969 1.2188 9.3281 5.5312 10.172 10.875l8.9531 53.062h63.656l8.9531-53.156c0.89062-5.4375 5.0156-9.7031 10.406-10.828 11.906-2.7656 23.531-6.5156 34.781-11.203 11.391-4.7344 22.359-10.406 32.859-16.922 4.7344-2.9531 10.875-2.625 15.281 0.84375l43.406 30.891 45-45-31.266-43.969c-3.0938-4.3594-3.2812-10.172-0.46875-14.719 13.078-20.953 22.641-43.922 28.219-67.969 1.2188-5.25 5.5312-9.2812 10.875-10.078l53.062-8.9531-0.046875-63.797-53.156-8.9531h0.046875c-5.4375-0.89062-9.75-5.0625-10.828-10.406-2.8125-11.906-6.5156-23.531-11.203-34.781-4.7344-11.391-10.406-22.359-16.969-32.859-2.9531-4.7344-2.625-10.875 0.89062-15.281l30.891-43.406-45-45-43.969 31.266v-0.046875c-4.3594 3.1406-10.172 3.2812-14.719 0.46875-20.953-13.078-43.922-22.641-67.969-28.172-5.25-1.2188-9.2812-5.5312-10.172-10.875zm16.312-63.141v-0.046875c-1.5469-9.5156-9.7969-16.5-19.453-16.5h-75.234c-9.6562 0-17.906 6.9844-19.453 16.5l-8.4844 50.297c-8.1562 2.2031-16.125 4.7812-23.906 7.7344-28.266-26.156-61.031-47.016-96.703-61.594-14.156-5.7656-28.734-10.5-43.594-14.156 14.766-7.0312 28.547-16.031 40.922-26.719 17.906-9.3281 36.891-16.5 56.531-21.328 54.188-13.406 111.33-8.8594 162.74 13.078 51.375 21.891 94.266 59.906 122.11 108.33l-27.234 19.453c-18.75-10.781-38.859-19.125-59.766-24.75zm118.31 42 0.046875-0.046875c1.5-0.23438 3.0469-0.28125 4.5469-0.14062 4.0781 0.32812 7.9688 1.9688 11.109 4.6406 0.46875 0.32812 0.89062 0.70312 1.2656 1.0781l53.203 53.203c6.8438 6.7969 7.7344 17.578 2.1094 25.406l-29.625 41.672c10.828 18.75 19.172 38.859 24.797 59.766l50.344 8.4844-0.046875-0.046875c9.4688 1.6406 16.406 9.7969 16.453 19.406v75.234c0 9.6562-6.9844 17.859-16.5 19.453l-50.344 8.4844h0.046875c-5.625 20.906-13.969 40.969-24.797 59.719l29.625 41.672c5.2969 7.3594 4.875 17.344-1.0312 24.188-0.32812 0.46875-0.65625 0.89062-1.0781 1.2656l-53.203 53.203c-6.7969 6.8438-17.578 7.7344-25.406 2.1094l-41.625-29.625c-18.75 10.828-38.812 19.172-59.719 24.797l-8.4844 50.344v-0.046875c-1.5938 9.5156-9.7969 16.5-19.453 16.5h-75.234c-9.6562 0-17.859-6.9844-19.453-16.5l-8.4844-50.391c-10.453-2.8125-20.672-6.3281-30.656-10.453-9.9844-4.1719-19.688-8.9531-29.062-14.344l-41.625 29.625h0.046875c-7.3125 5.2969-17.344 4.875-24.188-1.0312-0.42188-0.32812-0.84375-0.70312-1.2656-1.0781l-53.203-53.203c-6.8438-6.7969-7.7344-17.578-2.1094-25.406l29.625-41.672c-10.781-18.75-19.125-38.859-24.75-59.719l-50.297-8.4844h-0.046875c-9.5156-1.5938-16.453-9.8438-16.5-19.453v-24.234h-304.13c-3.5156 0-6.8906-1.4062-9.4219-3.9375-2.4844-2.4844-3.8906-5.8594-3.8906-9.4219 0-32.391 4.875-64.641 14.531-95.578h-201.42c-7.3594 0-13.312-5.9531-13.312-13.312 0-62.719 20.766-123.61 59.016-173.29 38.25-49.688 91.828-85.312 152.44-101.34-44.109-22.312-75.469-63.609-85.078-112.03-9.6094-48.469 3.5625-98.625 35.766-136.08 32.25-37.406 79.875-57.938 129.19-55.641 49.359 2.2969 94.875 27.141 123.47 67.406 30.75-22.219 67.641-34.172 105.56-34.172 37.875 0 74.812 11.953 105.56 34.172 28.594-40.219 74.109-65.016 123.42-67.266 49.266-2.25 96.891 18.281 129.05 55.688 32.203 37.406 45.375 87.516 35.812 135.89-9.6094 48.422-40.922 89.719-84.938 112.03 73.078 19.359 135.47 67.031 173.39 132.47zm-484.97 237.71v-24.281c0-9.6562 6.9844-17.859 16.5-19.5l50.297-8.4844v0.046876c2.8594-10.453 6.3281-20.672 10.5-30.656 4.125-9.9844 8.9531-19.688 14.344-29.062l-29.625-41.672c-5.25-7.3125-4.875-17.297 1.0312-24.188 0.32812-0.42187 0.70312-0.84375 1.0781-1.2656l53.203-53.203c6.7969-6.7969 17.578-7.6875 25.406-2.0625l41.578 29.672c3.0469-1.7344 6.1406-3.4688 9.2812-5.0625h-0.046875c-55.969-47.859-127.92-72.938-201.56-70.219-73.594 2.6719-143.53 32.953-195.84 84.844-52.312 51.844-83.25 121.5-86.625 195.1zm157.26-367.6c3.0938-0.9375 6.3281-1.8281 9.4219-2.6719-2.0156-1.0312-4.0312-2.1094-6.0469-3.2344-1.0781 1.9688-2.2031 3.9375-3.375 5.9062zm14.531-30.141c11.953-32.344 14.438-67.453 7.0312-101.2-7.3594-33.703-24.234-64.594-48.609-89.016l-1.5-1.5v0.046875c11.344-16.5 26.203-30.234 43.547-40.266 41.484-23.906 92.625-23.859 134.06 0.14062 41.438 24.047 66.938 68.344 66.844 116.25s-25.781 92.109-67.312 115.97c-41.531 23.812-92.672 23.672-134.06-0.42188zm-287.06 73.547c12.328 10.688 26.109 19.688 40.875 26.719-98.719 24.609-179.9 94.547-218.86 188.58h-197.44c4.5-87.422 53.109-166.5 129-210.05 75.891-43.5 168.71-45.516 246.42-5.25zm-45.938-46.031c3.1406 0.84375 6.3281 1.7344 9.4219 2.6719-1.1719-1.9219-2.2969-3.8906-3.375-5.9062-1.9688 1.125-3.9844 2.2031-6.0469 3.2344zm37.969-219.14-1.5 1.5v-0.046875c-24.375 24.422-41.25 55.312-48.609 89.016-7.3594 33.703-4.9219 68.812 7.0781 101.2-46.078 26.812-103.69 23.766-146.68-7.7344-42.984-31.5-63.234-85.453-51.562-137.48 11.672-51.984 53.062-92.156 105.42-102.23s105.7 11.812 135.84 55.734z" fill-rule="evenodd"/>
</svg>
