<?xml version="1.0" encoding="UTF-8"?>
<svg width="1200pt" height="1200pt" version="1.1" viewBox="0 0 1200 1200" xmlns="http://www.w3.org/2000/svg">
 <path d="m916.12 102.73h-40.523c-3.6758 0.027343-6.6484 3-6.6719 6.6719v21.602c-0.007813 6.7148-4.6758 12.527-11.234 13.98-19.648 4.3672-38.402 12.082-55.441 22.801-2.7617 2.125-6.207 3.1758-9.6836 2.9531-3.4805-0.21875-6.7656-1.6953-9.2383-4.1523l-15.324-15.387c-2.6289-2.5586-6.8164-2.5586-9.4453 0l-28.656 28.656c-2.5781 2.6211-2.5781 6.8242 0 9.4453l15.301 15.273c4.7461 4.7461 5.5586 12.148 1.957 17.809-10.828 16.973-18.66 35.684-23.148 55.309-0.46094 3.457-2.1602 6.625-4.7812 8.9219-2.6211 2.2969-5.9883 3.5664-9.4727 3.5703h-21.602c-3.6719 0.03125-6.6445 3-6.6836 6.6719v40.523c0.039062 3.6758 3.0117 6.6406 6.6836 6.6719h21.602c3.2578 0.015625 6.4141 1.1328 8.957 3.1719 2.543 2.0391 4.3164 4.8828 5.0312 8.0625 2.2188 10 5.3125 19.785 9.2422 29.242 3.7227 9.1289 8.2109 17.922 13.414 26.293 2.125 2.7656 3.1758 6.207 2.957 9.6875-0.22266 3.4805-1.6992 6.7617-4.1562 9.2344l-15.266 15.266h0.003906c-2.5781 2.6211-2.5781 6.8242 0 9.4453l28.656 28.656c2.6172 2.5781 6.8203 2.5781 9.4414 0l15.266-15.266c4.7461-4.7461 12.156-5.5586 17.82-1.957 8.6602 5.5156 17.785 10.262 27.273 14.184 9.082 3.7695 18.461 6.7656 28.047 8.9531 3.4531 0.46094 6.625 2.1602 8.9219 4.7852 2.2969 2.6211 3.5664 5.9844 3.5703 9.4727v21.602-0.003906c0.03125 3.6758 2.9961 6.6445 6.6719 6.6836h40.523c3.6719-0.039062 6.6367-3.0078 6.6719-6.6836v-21.602 0.003906c-0.003906-6.7227 4.668-12.539 11.23-13.98 19.648-4.375 38.398-12.086 55.441-22.801 2.7617-2.1211 6.2031-3.168 9.6797-2.9492 3.4766 0.21875 6.7578 1.6953 9.2305 4.1484l15.277 15.266c2.6211 2.5781 6.8242 2.5781 9.4453 0l28.656-28.656c2.5586-2.6289 2.5586-6.8164 0-9.4453l-15.277-15.266v0.003906c-2.293-2.3164-3.7305-5.3359-4.082-8.5703-0.35547-3.2383 0.39844-6.5 2.1367-9.25 10.816-16.98 18.645-35.688 23.148-55.309 0.46094-3.4531 2.1602-6.6211 4.7773-8.918 2.6211-2.2969 5.9844-3.5664 9.4688-3.5742h21.602-0.003906c3.6758-0.027344 6.6484-3 6.6719-6.6719v-40.418c-0.023437-3.6719-2.9961-6.6445-6.6719-6.6719h-21.602 0.003906c-6.7227-0.023438-12.52-4.7227-13.934-11.289-4.3555-19.645-12.047-38.398-22.738-55.441-2.125-2.7656-3.1719-6.2031-2.9492-9.6797 0.21875-3.4805 1.6914-6.7578 4.1484-9.2344l15.277-15.277-0.003906 0.003906c2.5625-2.6289 2.5625-6.8164 0-9.4453l-28.535-28.656c-2.6289-2.5586-6.8164-2.5586-9.4414 0l-15.277 15.277c-2.3125 2.2891-5.3359 3.7305-8.5703 4.082-3.2383 0.35156-6.4961-0.40234-9.25-2.1367-16.996-10.855-35.727-18.707-55.379-23.223-3.4453-0.46094-6.6055-2.1562-8.8984-4.7656-2.2969-2.6133-3.5664-5.9648-3.582-9.4414v-21.602c-0.027343-3.6719-3-6.6445-6.6719-6.6719zm51.082 143.14c22.16 22.156 32.754 53.363 28.668 84.43-4.0898 31.07-22.395 58.469-49.531 74.141-27.137 15.672-60.02 17.832-88.973 5.8438s-50.684-36.762-58.797-67.031c-8.1172-30.266-1.6914-62.586 17.379-87.453 19.074-24.863 48.625-39.441 79.961-39.449 26.746-0.035156 52.402 10.586 71.293 29.52zm-71.293-58.273v0.003906c40.289-0.007812 78.289 18.723 102.82 50.684 24.531 31.957 32.805 73.508 22.387 112.43-10.414 38.918-38.34 70.777-75.559 86.207-37.215 15.43-79.492 12.676-114.39-7.457-34.898-20.133-58.449-55.348-63.727-95.289-5.2734-39.941 8.3242-80.066 36.797-108.57 24.277-24.328 57.242-37.98 91.609-37.945zm177.67 854.01v-73.609c-0.17188-0.19922-0.37109-0.375-0.58594-0.52734-1.457-1.0273-3.2109-1.543-4.9922-1.4648h-344.4l-36.266 50.242c-2.2227 3.7266-6.2461 6.0078-10.582 6h-194.29c-3.9492 0.007812-7.6562-1.8906-9.9609-5.0977l-36.898-51.145h-344.4c-1.7695-0.074219-3.5156 0.43359-4.9688 1.4531-0.21484 0.14844-0.40625 0.32422-0.57422 0.52734v73.621c0.55078 16.391 8.5859 31.625 21.805 41.34 16.062 12.266 35.793 18.758 56.004 18.43h832.31c20.207 0.32812 39.938-6.1641 56.004-18.43 13.215-9.7148 21.25-24.949 21.801-41.34zm-970.3-100.23v-612.57c0-6.8086 5.5156-12.324 12.324-12.324h537.08v-19.586c0.015624-9.3906 3.7539-18.391 10.395-25.031 6.6367-6.6367 15.641-10.375 25.031-10.391h10.43-0.003906c4.3672-15.477 10.555-30.383 18.434-44.402l-7.3906-7.3906h-0.003907c-6.625-6.6523-10.344-15.656-10.344-25.043 0-9.3906 3.7188-18.395 10.344-25.043l28.656-28.656c6.6523-6.6328 15.66-10.355 25.051-10.355s18.398 3.7227 25.051 10.355l7.3789 7.3906c14.016-7.8867 28.922-14.07 44.402-18.422v-10.441 0.003906c0.015625-9.3906 3.75-18.391 10.391-25.031s15.641-10.379 25.031-10.395h40.523c9.4023-0.011718 18.422 3.7031 25.086 10.332 6.6641 6.6328 10.426 15.633 10.461 25.031v10.441c15.48 4.3477 30.387 10.531 44.398 18.422l7.3906-7.3789v-0.003907c6.6523-6.6289 15.656-10.352 25.047-10.352 9.3867 0 18.395 3.7227 25.043 10.352l28.645 28.719c6.6289 6.6445 10.355 15.652 10.355 25.043s-3.7266 18.395-10.355 25.043l-7.3789 7.3789h-0.003906c3.9453 7.0312 7.4688 14.285 10.551 21.734 3.0742 7.4102 5.7031 15 7.8711 22.727h10.441c9.3906 0.015625 18.391 3.7539 25.031 10.395 6.6367 6.6406 10.375 15.641 10.391 25.031v40.523c-0.015625 9.3906-3.7539 18.391-10.391 25.031-6.6406 6.6406-15.641 10.375-25.031 10.391h-10.406c-4.3516 15.48-10.535 30.387-18.418 44.402l7.3789 7.3789c6.6328 6.6484 10.355 15.66 10.355 25.051s-3.7227 18.398-10.355 25.051l-24.73 24.73v441.86h10.57c7.3477-0.035156 14.492 2.4062 20.281 6.9375 6.1562 4.6836 9.8125 11.941 9.9102 19.68v73.609c-0.53125 23.875-12.016 46.184-31.141 60.492-20.398 15.77-45.52 24.203-71.305 23.926h-832.32c-25.789 0.27734-50.914-8.1562-71.316-23.926-19.125-14.309-30.609-36.617-31.141-60.492v-73.609c0.10156-7.7383 3.7617-15 9.9219-19.68 5.793-4.5391 12.949-6.9805 20.305-6.9375zm606.92-537.23c2.0898 4.4648 4.3555 8.8555 6.7695 13.199l-7.3906 7.3789h-0.003907c-6.6211 6.6562-10.34 15.664-10.34 25.051 0 9.3906 3.7188 18.395 10.34 25.051l28.656 28.656c6.6562 6.625 15.664 10.344 25.051 10.344 9.3906 0 18.395-3.7188 25.051-10.344l7.3789-7.3789c7.0117 3.9414 14.254 7.4648 21.684 10.547 7.4141 3.0703 15.004 5.6953 22.73 7.8711v10.43c0.015625 9.3906 3.7539 18.391 10.391 25.031 6.6406 6.6367 15.641 10.375 25.031 10.391h40.523c9.418 0.011719 18.453-3.7227 25.117-10.375 6.6641-6.6523 10.41-15.68 10.418-25.098v-10.43 0.003906c7.7227-2.1758 15.312-4.8047 22.727-7.8711 0.96094-0.39844 1.9219-0.80078 2.8789-1.1992v371h-793.69v-472.26zm291.6 97.703 1.5859 1.5859h-0.003906c6.6406 6.6406 15.652 10.363 25.047 10.344 1.4453 0 2.8945-0.085938 4.332-0.26562v427.86h-315.42c-3.9492-0.011719-7.6602 1.8906-9.9609 5.1016l-36.887 51.098-181.79-0.003907-36.301-50.195c-2.2227-3.7227-6.2461-6-10.582-6h-313.89v-600.25h524.95c0.93359 8.6992 5.043 16.746 11.547 22.602 6.5039 5.8516 14.938 9.0977 23.688 9.1133h10.43c0.625 2.2422 1.2969 4.4648 1.9922 6.6602h-529.32c-6.8047 0-12.324 5.5195-12.324 12.324v496.91c0 6.8086 5.5195 12.324 12.324 12.324h818.27c6.8047 0 12.324-5.5156 12.324-12.324zm-500.11 198.75-89.508-65.797 89.508-65.762c3.4727-3.2383 5.1289-7.9805 4.4219-12.676-0.70703-4.6953-3.6875-8.7422-7.9609-10.812-4.2734-2.0742-9.293-1.9062-13.418 0.44922l-105.01 77.137c-1.2812 0.90625-2.4062 2.0117-3.3359 3.2734-2.2305 3.0742-3.1602 6.9023-2.582 10.656s2.6133 7.125 5.668 9.3867l105.27 77.328h-0.003907c4.1445 2.4961 9.2656 2.75 13.633 0.66797s7.3984-6.2148 8.0664-11.008c0.67188-4.793-1.1133-9.5977-4.7422-12.797zm174.27 23.137 105.25-77.332c3.0703-2.2461 5.1172-5.6211 5.6953-9.3789 0.58203-3.7578-0.35938-7.5938-2.6094-10.66-0.92578-1.2695-2.0508-2.375-3.3359-3.2734l-105-77.09c-3.0352-2.6719-7.0547-3.9453-11.074-3.5117-4.0195 0.4375-7.6719 2.543-10.059 5.8047-2.3906 3.2617-3.3008 7.3789-2.5078 11.344 0.79688 3.9648 3.2227 7.4102 6.6836 9.5l89.508 65.762-89.508 65.746c-3.4609 2.0859-5.8867 5.5352-6.6836 9.5-0.79297 3.9648 0.11719 8.082 2.5078 11.344 2.3867 3.2617 6.0391 5.3672 10.059 5.8008 4.0195 0.4375 8.0391-0.83594 11.074-3.5078zm-137.39 45.227 109.93-257c2.0078-4.7188 1.3438-10.145-1.7383-14.242-3.0781-4.0938-8.1094-6.2344-13.199-5.6133-5.0859 0.62109-9.457 3.9062-11.461 8.6211l-109.92 257c-2.0078 4.7188-1.3438 10.145 1.7383 14.242 3.0781 4.0938 8.1094 6.2344 13.199 5.6133 5.0859-0.61719 9.457-3.9062 11.461-8.6211z" fill-rule="evenodd"/>
</svg>
