<?xml version="1.0" encoding="UTF-8"?>
<svg width="1200pt" height="1200pt" version="1.1" viewBox="0 0 1200 1200" xmlns="http://www.w3.org/2000/svg">
 <path d="m232.26 500.02-76.359 102.38h-0.046875c-7.3594 9.8438-9.7031 22.594-6.375 34.406 3.3281 11.859 11.953 21.516 23.391 26.062l56.859 22.641v239.48c0.046875 16.219 9.9375 30.797 25.031 36.75l330.37 134.39c9.5156 3.8438 20.203 3.8438 29.719 0l330.66-134.48c15.047-5.9062 24.984-20.438 24.984-36.656v-239.26l56.859-22.641v0.046875c11.438-4.5938 20.109-14.203 23.438-26.062s0.9375-24.609-6.4219-34.453l-76.641-102.61c-1.4062-1.9219-3.375-3.4219-5.625-4.2656l-142.87-52.641c-3.1406-1.3594-6.7031-1.4062-9.8906-0.046875-3.1406 1.3125-5.625 3.8906-6.8438 7.125s-1.0312 6.7969 0.46875 9.8906c1.5469 3.0938 4.2656 5.3906 7.5469 6.4219l112.5 41.625-323.02 128.63-322.87-128.63 122.86-45.609c3.1406-1.1719 5.6719-3.5156 7.0781-6.5625 1.3594-3 1.5-6.4688 0.32812-9.5625-2.4375-6.4688-9.5625-9.75-16.031-7.4062l-153.84 57c-2.1094 0.84375-3.8906 2.25-5.25 4.0312zm-58.734 130.13h-0.046875c-1.1719-4.3125-0.28125-8.9531 2.3906-12.516l70.641-94.734 333.74 132.89-75 101.02v-0.046875c-3.9844 5.2969-10.969 7.3125-17.156 4.875l-240.98-95.766-65.016-25.734c-4.2188-1.7344-7.4062-5.3438-8.625-9.75zm90.375 308.11h-0.046875c-5.4375-2.1562-9-7.4062-9.0938-13.266v-229.22l223.74 89.109c4.6406 1.8281 9.6094 2.7656 14.625 2.7656 12.562 0.046875 24.375-5.8594 31.875-15.891l62.484-84.234v379.97c-0.09375 0.98438-0.09375 1.9219 0 2.9062zm681.32-13.266c0.046876 5.9531-3.6094 11.297-9.0938 13.5l-323.63 131.9c0.09375-0.98438 0.09375-1.9219 0-2.9062v-379.97l62.484 83.859c10.875 14.156 29.859 19.312 46.359 12.516l223.74-89.109zm78.891-307.36c2.6719 3.5625 3.5625 8.2031 2.3906 12.516-1.2656 4.3594-4.4531 7.875-8.625 9.6094l-65.016 25.734-240.37 96.141c-6.1406 2.4375-13.172 0.42188-17.109-4.875l-75-101.02 333.74-132.89zm-163.74-323.63h67.641-0.046875c6.9375 0 12.516 5.5781 12.516 12.516 0 6.8906-5.5781 12.469-12.516 12.469h-67.594c-6.9375 0-12.516-5.5781-12.516-12.469 0-6.9375 5.5781-12.516 12.516-12.516zm24.984-121.87c4.8281 4.875 4.8281 12.75 0 17.625l-47.859 47.766c-2.3906 2.3438-5.5781 3.6094-8.9062 3.6094-5.0156 0-9.5156-3.0469-11.484-7.6875-1.9219-4.6406-0.89062-9.9844 2.625-13.547l47.859-47.859v-0.046875c4.875-4.5469 12.469-4.5 17.25 0.14062zm-612.52 121.87h67.641c6.8906 0 12.516 5.5781 12.516 12.516 0 6.8906-5.625 12.469-12.516 12.469h-68.484c-6.9375 0-12.516-5.5781-12.516-12.469 0-6.9375 5.5781-12.516 12.516-12.516zm89.625-56.484-47.859-47.859v-0.046874c-4.8281-4.875-4.8281-12.75 0-17.625 2.3438-2.3438 5.5312-3.7031 8.8594-3.7031s6.5625 1.3594 8.9062 3.7031l47.859 47.859v0.046876c3.5156 3.5625 4.5469 8.9062 2.625 13.547-1.9688 4.6406-6.4688 7.6875-11.484 7.6875-3.3281 0-6.5156-1.2656-8.9062-3.6094zm62.531 12.469c-16.641 0-30.141 13.5-30.141 30.141v52.875c0.046875 16.594 13.5 30.047 30.141 30.141h11.391-0.046875c2.25 6.6094 4.9219 13.078 8.0156 19.359l-8.0156 8.0156c-5.625 5.625-8.8125 13.312-8.8125 21.281 0 8.0156 3.1875 15.656 8.8125 21.328l37.5 37.5c5.6719 5.6719 13.312 8.8125 21.328 8.8125s15.656-3.1406 21.328-8.8125l8.0156-8.0156h-0.046875c6.2812 3.1406 12.75 5.8125 19.406 8.0156v11.391c-0.23438 16.594 13.031 30.188 29.625 30.469h53.016-0.046875c16.641 0 30.141-13.453 30.141-30.094v-11.391c6.6562-2.3906 13.125-5.2031 19.359-8.4844l8.0156 8.0156v-0.046874c5.6719 5.6719 13.312 8.8594 21.328 8.8594 7.9688 0 15.656-3.1875 21.281-8.8594l37.5-37.5c5.6719-5.625 8.8594-13.312 8.8594-21.281 0-8.0156-3.1875-15.656-8.8594-21.328l-8.0156-8.0156h0.046875c3.0938-6.2344 5.7656-12.75 7.9688-19.359h10.875c16.688-0.046874 30.141-13.594 30.141-30.234v-52.781c-0.046875-16.594-13.547-30-30.141-30h-11.391 0.046875c-2.25-6.6094-4.9219-13.078-8.0156-19.359l8.0156-8.0156c5.625-5.625 8.8125-13.312 8.8125-21.281 0-8.0156-3.1875-15.656-8.8125-21.328l-37.5-37.5c-11.906-11.531-30.75-11.531-42.656 0l-8.0156 8.0156h0.046875c-6.3281-3.0938-12.797-5.8125-19.406-8.1562v-11.25c0-16.641-13.453-30.094-30.094-30.094h-52.5c-16.641 0-30.141 13.453-30.141 30.094v11.25c-6.6094 2.3438-13.078 5.0625-19.359 8.1562l-8.0156-8.0156c-11.859-11.531-30.75-11.531-42.609 0l-37.5 37.5c-5.6719 5.6719-8.8594 13.312-8.8594 21.328 0 7.9688 3.1875 15.656 8.8594 21.281l8.0156 8.0156h-0.046875c-3.0469 6.2812-5.6719 12.75-7.875 19.359zm20.484 24.984v0.046876c5.7656 0.1875 10.922-3.5625 12.516-9.1406 2.9062-10.969 7.125-21.516 12.469-31.5 2.7656-4.9219 1.875-11.062-2.1094-15l-14.484-14.391c-2.0156-2.0156-2.0156-5.2969 0-7.3594l37.5-37.5c0.84375-1.2188 2.2031-1.9219 3.6562-1.9219 1.5 0 2.8594 0.70312 3.7031 1.9219l13.734 14.859c3.9375 3.9375 10.031 4.8281 14.906 2.1562 9.9844-5.625 20.578-10.031 31.594-13.125 5.5312-1.6406 9.2344-6.7969 9-12.516v-20.391c0-2.8125 2.2969-5.1094 5.1562-5.1094h53.016-0.046875c1.3594 0 2.6719 0.5625 3.6562 1.5 0.9375 0.98438 1.5 2.25 1.5 3.6094v20.531c-0.23438 5.7188 3.4688 10.875 9 12.469 11.016 3.1406 21.609 7.5469 31.594 13.125 5.1094 3.0469 11.625 2.1094 15.656-2.25l14.484-14.484c0.84375-1.2188 2.2031-1.9219 3.7031-1.9219 1.4531 0 2.8125 0.70312 3.6562 1.9219l37.5 37.5c2.0156 2.0625 2.0156 5.3438 0 7.3594l-14.484 14.391c-3.9844 3.9375-4.875 10.078-2.1094 15 5.3438 9.9844 9.5625 20.531 12.469 31.5 1.5938 5.5781 6.75 9.3281 12.516 9.1406h19.734c1.3594 0 2.6719 0.51562 3.6562 1.5 0.9375 0.9375 1.5 2.25 1.5 3.6094v52.875c0 1.3594-0.51562 2.7188-1.4531 3.7031-0.98438 0.98437-2.2969 1.5469-3.7031 1.5469h-20.109c-5.7188-0.23437-10.875 3.4688-12.516 9-2.9062 11.016-7.0781 21.609-12.469 31.641-2.7188 4.875-1.8281 10.922 2.1094 14.859l14.484 14.484c2.0156 2.0625 2.0156 5.3438 0 7.4062l-37.5 37.5c-2.0156 2.0156-5.2969 2.0156-7.3594 0l-14.109-15.141c-3.9375-3.9375-10.031-4.8281-14.906-2.1094-10.031 5.8594-20.812 10.5-31.969 13.734-5.5312 1.5938-9.2344 6.75-9 12.516v20.484c0 2.8125-2.2969 5.1094-5.1562 5.1094h-52.969c-2.8594 0-5.1562-2.2969-5.1562-5.1094v-21.609c0.23438-5.7656-3.4688-10.922-9-12.516-11.016-3.0938-21.656-7.5-31.594-13.125-1.875-1.0312-3.9844-1.5469-6.1406-1.5-3.2812 0-6.4219 1.3125-8.7656 3.6094l-14.484 14.484v0.046876c-2.0625 2.0156-5.3438 2.0156-7.3594 0l-37.5-37.5c-2.0156-2.0625-2.0156-5.3438 0-7.4062l14.484-14.484c3.9375-3.9375 4.8281-9.9844 2.1094-14.859-5.3906-10.031-9.5625-20.625-12.469-31.641-1.6406-5.5312-6.7969-9.2344-12.516-9h-20.109c-1.4062 0-2.7188-0.5625-3.7031-1.5469-0.9375-0.98438-1.4531-2.3438-1.4531-3.7031v-52.266c0.09375-2.7656 2.3438-4.9688 5.1562-4.9688zm156.37 137.53c42.656 0 81.141-25.688 97.453-65.109 16.359-39.422 7.3125-84.797-22.875-114.98-30.141-30.188-75.516-39.188-114.94-22.875s-65.156 54.797-65.156 97.453c0.09375 58.266 47.297 105.47 105.52 105.52zm0-185.86c32.578 0 61.922 19.594 74.391 49.688s5.5312 64.734-17.531 87.75c-23.016 23.016-57.656 29.859-87.75 17.391-30.094-12.516-49.641-41.906-49.594-74.484 0-21.281 8.5312-41.719 23.625-56.766s35.531-23.484 56.859-23.484z"/>
</svg>
