<?xml version="1.0" encoding="UTF-8" standalone="no"?>
<svg
   xmlns:dc="http://purl.org/dc/elements/1.1/"
   xmlns:cc="http://creativecommons.org/ns#"
   xmlns:rdf="http://www.w3.org/1999/02/22-rdf-syntax-ns#"
   xmlns:svg="http://www.w3.org/2000/svg"
   xmlns="http://www.w3.org/2000/svg"
   viewBox="0 0 377.95334 226.772"
   height="226.772"
   width="377.95334"
   xml:space="preserve"
   id="svg2"
   version="1.1"><metadata
     id="metadata8"><rdf:RDF><cc:Work
         rdf:about=""><dc:format>image/svg+xml</dc:format><dc:type
           rdf:resource="http://purl.org/dc/dcmitype/StillImage" /></cc:Work></rdf:RDF></metadata><defs
     id="defs6"><clipPath
       id="clipPath18"
       clipPathUnits="userSpaceOnUse"><path
         id="path16"
         d="M 0,0 H 283.465 V 170.079 H 0 Z" /></clipPath></defs><g
     transform="matrix(1.3333333,0,0,-1.3333333,0,226.772)"
     id="g10"><g
       id="g12"><g
         clip-path="url(#clipPath18)"
         id="g14"><g
           transform="translate(60.2861,68.593)"
           id="g20"><path
             id="path22"
             style="fill:#F6511D;fill-opacity:1;fill-rule:nonzero;stroke:none"
             d="m 0,0 c 0.468,-0.815 1.072,-1.482 1.811,-2 0.739,-0.519 1.589,-0.902 2.55,-1.149 0.96,-0.247 1.958,-0.37 2.993,-0.37 0.739,0 1.515,0.086 2.328,0.259 0.813,0.173 1.552,0.445 2.217,0.815 0.665,0.371 1.22,0.864 1.663,1.482 0.444,0.617 0.665,1.395 0.665,2.334 0,1.58 -1.047,2.765 -3.141,3.556 C 8.991,5.716 6.072,6.507 2.328,7.297 0.8,7.642 -0.691,8.05 -2.143,8.52 c -1.454,0.468 -2.748,1.085 -3.881,1.852 -1.134,0.765 -2.045,1.728 -2.734,2.889 -0.691,1.16 -1.035,2.58 -1.035,4.26 0,2.469 0.48,4.493 1.441,6.074 0.961,1.58 2.229,2.827 3.807,3.742 1.576,0.913 3.35,1.555 5.321,1.926 1.97,0.37 3.991,0.555 6.061,0.555 2.069,0 4.076,-0.198 6.023,-0.592 1.946,-0.396 3.683,-1.063 5.211,-2.001 1.526,-0.938 2.796,-2.185 3.806,-3.741 1.009,-1.555 1.613,-3.519 1.811,-5.889 H 13.71 c -0.148,2.024 -0.912,3.395 -2.291,4.111 -1.38,0.716 -3.006,1.075 -4.878,1.075 -0.591,0 -1.232,-0.038 -1.922,-0.112 C 3.929,22.595 3.3,22.434 2.735,22.188 2.168,21.94 1.687,21.582 1.293,21.114 c -0.395,-0.47 -0.591,-1.1 -0.591,-1.889 0,-0.939 0.344,-1.704 1.035,-2.297 0.689,-0.593 1.589,-1.074 2.698,-1.445 1.108,-0.37 2.376,-0.703 3.806,-1 1.428,-0.296 2.882,-0.618 4.36,-0.963 1.527,-0.346 3.018,-0.766 4.472,-1.259 1.453,-0.495 2.746,-1.149 3.88,-1.963 1.133,-0.815 2.044,-1.828 2.735,-3.038 0.689,-1.211 1.034,-2.704 1.034,-4.482 0,-2.519 -0.505,-4.63 -1.515,-6.334 -1.01,-1.704 -2.328,-3.074 -3.954,-4.112 -1.626,-1.037 -3.486,-1.766 -5.58,-2.185 -2.095,-0.419 -4.225,-0.63 -6.393,-0.63 -2.217,0 -4.386,0.223 -6.504,0.667 -2.119,0.445 -4.004,1.185 -5.654,2.223 -1.651,1.037 -3.006,2.407 -4.065,4.111 -1.06,1.704 -1.639,3.84 -1.737,6.408 h 9.978 C -0.702,1.79 -0.469,0.815 0,0 M 31.152,43.376 H 41.647 V 34.708 H 31.152 Z M 41.647,-9.52 H 31.152 v 38.301 h 10.495 z m 34.958,23.818 c -0.295,1.456 -0.801,2.741 -1.515,3.852 -0.715,1.112 -1.639,2.012 -2.772,2.704 -1.134,0.691 -2.562,1.038 -4.286,1.038 -1.726,0 -3.178,-0.347 -4.361,-1.038 -1.182,-0.692 -2.132,-1.605 -2.845,-2.741 -0.715,-1.136 -1.233,-2.433 -1.552,-3.889 -0.321,-1.457 -0.481,-2.976 -0.481,-4.556 0,-1.482 0.172,-2.963 0.518,-4.445 0.344,-1.482 0.898,-2.804 1.662,-3.964 0.764,-1.161 1.725,-2.099 2.883,-2.815 1.157,-0.716 2.55,-1.074 4.176,-1.074 1.724,0 3.165,0.345 4.323,1.037 1.158,0.691 2.081,1.617 2.772,2.778 0.689,1.16 1.183,2.482 1.478,3.964 0.296,1.481 0.444,3.012 0.444,4.593 0,1.58 -0.148,3.099 -0.444,4.556 M 77.049,-4.63 c -1.233,-2.074 -2.846,-3.569 -4.841,-4.482 -1.996,-0.913 -4.25,-1.371 -6.763,-1.371 -2.858,0 -5.371,0.556 -7.539,1.667 -2.169,1.111 -3.954,2.617 -5.358,4.519 -1.404,1.901 -2.465,4.086 -3.178,6.557 -0.715,2.469 -1.072,5.037 -1.072,7.704 0,2.568 0.357,5.049 1.072,7.445 0.713,2.395 1.774,4.507 3.178,6.335 1.404,1.826 3.165,3.296 5.284,4.408 2.118,1.111 4.583,1.666 7.391,1.666 2.266,0 4.422,-0.481 6.467,-1.444 2.044,-0.963 3.659,-2.384 4.841,-4.26 h 0.148 V 43.376 H 87.174 V -9.52 h -9.978 v 4.89 z m 41.129,24.447 c -1.256,1.382 -3.166,2.075 -5.728,2.075 -1.675,0 -3.067,-0.285 -4.175,-0.852 -1.109,-0.569 -1.996,-1.273 -2.661,-2.112 -0.665,-0.84 -1.134,-1.729 -1.404,-2.667 -0.272,-0.939 -0.432,-1.778 -0.481,-2.519 h 17.073 c -0.493,2.667 -1.367,4.692 -2.624,6.075 m -11.862,-20.15 c 1.576,-1.532 3.843,-2.297 6.8,-2.297 2.117,0 3.941,0.53 5.469,1.593 1.526,1.061 2.463,2.185 2.808,3.371 h 9.239 c -1.478,-4.594 -3.745,-7.879 -6.8,-9.853 -3.055,-1.976 -6.751,-2.964 -11.086,-2.964 -3.006,0 -5.716,0.482 -8.13,1.445 -2.415,0.963 -4.46,2.334 -6.134,4.112 -1.676,1.777 -2.969,3.9 -3.881,6.371 -0.912,2.469 -1.367,5.185 -1.367,8.149 0,2.864 0.468,5.53 1.404,8.001 0.936,2.469 2.266,4.604 3.991,6.408 1.725,1.802 3.781,3.222 6.172,4.26 2.389,1.037 5.037,1.555 7.945,1.555 3.252,0 6.085,-0.629 8.499,-1.889 2.414,-1.259 4.398,-2.951 5.95,-5.074 1.552,-2.125 2.672,-4.545 3.363,-7.261 0.689,-2.716 0.935,-5.556 0.739,-8.519 h -27.568 c 0.148,-3.408 1.009,-5.878 2.587,-7.408 m 42.275,23.521 c 1.576,-1.161 3.424,-1.741 5.543,-1.741 2.217,0 4.065,0.58 5.543,1.741 1.478,1.16 2.218,2.852 2.218,5.075 0,0.691 -0.1,1.444 -0.296,2.259 -0.198,0.815 -0.58,1.593 -1.146,2.334 -0.567,0.741 -1.355,1.358 -2.365,1.852 -1.01,0.493 -2.328,0.741 -3.954,0.741 -1.035,0 -2.032,-0.161 -2.993,-0.482 -0.961,-0.322 -1.811,-0.778 -2.55,-1.37 -0.739,-0.593 -1.319,-1.334 -1.737,-2.223 -0.419,-0.889 -0.628,-1.926 -0.628,-3.111 0,-2.223 0.787,-3.915 2.365,-5.075 m -10.347,12.187 c 1.034,1.778 2.376,3.259 4.028,4.445 1.65,1.185 3.51,2.074 5.58,2.667 2.069,0.592 4.163,0.889 6.282,0.889 3.202,0 5.913,-0.495 8.13,-1.482 2.217,-0.989 4.003,-2.186 5.358,-3.593 1.355,-1.408 2.329,-2.915 2.92,-4.519 0.591,-1.606 0.887,-3.05 0.887,-4.334 0,-2.569 -0.628,-4.815 -1.885,-6.742 -1.256,-1.926 -3.141,-3.309 -5.654,-4.148 V 18.41 c 3.104,-0.693 5.494,-2.162 7.169,-4.408 1.675,-2.248 2.513,-5.001 2.513,-8.261 0,-2.766 -0.554,-5.161 -1.663,-7.186 -1.108,-2.025 -2.575,-3.704 -4.397,-5.037 -1.824,-1.334 -3.893,-2.334 -6.209,-3.001 -2.316,-0.666 -4.681,-1 -7.095,-1 -2.513,0 -4.94,0.309 -7.28,0.926 -2.341,0.617 -4.434,1.593 -6.282,2.927 -1.848,1.333 -3.326,3.012 -4.435,5.037 -1.108,2.025 -1.663,4.445 -1.663,7.26 0,3.309 0.85,6.075 2.55,8.298 1.7,2.222 4.102,3.704 7.206,4.445 v 0.148 c -2.513,0.691 -4.41,2 -5.691,3.926 -1.282,1.926 -1.921,4.173 -1.921,6.742 0,2.321 0.517,4.371 1.552,6.149 m 7.538,-32.819 c 0.492,-1.087 1.146,-2.013 1.959,-2.778 0.813,-0.767 1.785,-1.359 2.919,-1.778 1.133,-0.42 2.316,-0.63 3.548,-0.63 1.281,0 2.451,0.21 3.511,0.63 1.059,0.419 1.995,1.011 2.808,1.778 0.813,0.765 1.441,1.691 1.885,2.778 0.443,1.086 0.665,2.271 0.665,3.556 0,1.234 -0.234,2.358 -0.702,3.371 -0.469,1.011 -1.109,1.889 -1.922,2.63 -0.813,0.74 -1.749,1.308 -2.808,1.703 -1.06,0.395 -2.206,0.593 -3.437,0.593 -2.563,0 -4.73,-0.704 -6.504,-2.111 -1.774,-1.408 -2.661,-3.445 -2.661,-6.112 0,-1.334 0.246,-2.544 0.739,-3.63" /></g></g></g></g></svg>